<?xml version="1.0" standalone="no"?>
<!DOCTYPE svg PUBLIC "-//W3C//DTD SVG 20010904//EN"
 "http://www.w3.org/TR/2001/REC-SVG-20010904/DTD/svg10.dtd">
<svg version="1.0" xmlns="http://www.w3.org/2000/svg"
 width="1024.000000pt" height="1024.000000pt" viewBox="0 0 1024.000000 1024.000000"
 preserveAspectRatio="xMidYMid meet">
<metadata>
Created by potrace 1.14, written by Peter Selinger 2001-2017
</metadata>
<g transform="translate(0.000000,1024.000000) scale(0.100000,-0.100000)"
fill="#000000" stroke="none">
<path d="M0 5120 l0 -5120 5120 0 5120 0 0 5120 0 5120 -5120 0 -5120 0 0
-5120z m5116 3793 c6 -10 87 -148 179 -308 93 -159 205 -353 250 -430 45 -77
272 -468 504 -868 l423 -728 -53 -92 c-98 -172 -649 -1128 -1046 -1815 -134
-233 -247 -430 -250 -438 -4 -12 171 -14 1355 -14 l1360 0 59 -102 c33 -57
151 -263 263 -458 112 -195 296 -517 410 -715 713 -1242 920 -1605 920 -1609
0 -4 -613 -6 -1362 -6 l-1363 0 -356 623 c-197 342 -540 942 -764 1332 -224
391 -435 758 -468 818 -33 59 -63 107 -66 107 -3 0 -19 -24 -35 -53 -16 -28
-154 -268 -306 -532 -398 -691 -631 -1095 -996 -1730 l-322 -560 -1361 -3
c-748 -1 -1361 0 -1361 3 0 3 42 79 94 168 51 89 146 254 211 367 379 660 744
1293 855 1485 70 121 268 465 440 765 172 300 370 644 440 765 70 121 242 420
382 665 141 245 453 787 693 1205 241 418 506 879 590 1025 84 146 203 353
265 460 61 107 176 306 253 442 78 136 144 248 147 248 3 0 10 -8 16 -17z"/>
</g>
</svg>
